<svg xmlns="http://www.w3.org/2000/svg" width="26.4" height="23.8"><rect width="100%" height="100%" fill="none"/><title>heart</title><g class="currentLayer"><title>Layer 1</title><path d="M19 0a7.1 7.1 0 0 0-5.8 3 7.1 7.1 0 0 0-5.8-3A7.4 7.4 0 0 0 0 7.4c0 5.8 13.2 16.4 13.2 16.4S26.4 13.2 26.4 7.4A7.4 7.4 0 0 0 19 0zm0 2.6a4.7 4.7 0 0 1 4.7 4.8c0 2.6-5.2 8.5-10.6 12.9C7.8 15.7 2.6 9.9 2.6 7.4a4.7 4.7 0 0 1 4.8-4.8c3.2 0 5.8 4 5.8 4s2.5-4 5.8-4" fill="#d2d2d2"/><path fill="#d2d2d2" d="M13.105 5.784c4.419-12.678 21.732 0 0 16.299-21.733-16.3-4.42-28.977 0-16.3z" class="selected" color="#e5dcd5"/></g></svg>