<svg xmlns="http://www.w3.org/2000/svg" width="26.399999618530273" height="23.799999237060547" style=""><rect id="backgroundrect" width="100%" height="100%" x="0" y="0" fill="none" stroke="none"/><title>heart</title><g class="currentLayer" style=""><title>Layer 1</title><path d="M19.000000047683717,-2.3841857821338408e-8 a7.1,7.1 0 0 0 -5.8,3 a7.1,7.1 0 0 0 -5.8,-3 A7.4,7.4 0 0 0 4.768371586472142e-8,7.399999976158142 C4.768371586472142e-8,13.199999976158143 13.200000047683716,23.79999997615814 13.200000047683716,23.79999997615814 S26.400000047683715,13.199999976158143 26.400000047683715,7.399999976158142 A7.4,7.4 0 0 0 19.000000047683717,-2.3841857821338408e-8 zm0,2.6 A4.7,4.7 0 0 1 23.700000047683716,7.399999976158142 c0,2.6 -5.2,8.5 -10.6,12.9 C7.8000000476837155,15.699999976158143 2.600000047683716,9.899999976158142 2.600000047683716,7.399999976158142 A4.7,4.7 0 0 1 7.400000047683715,2.5999999761581423 c3.2,0 5.8,4 5.8,4 s2.5,-4 5.8,-4 " id="svg_1" class="" fill-opacity="1" fill="#d2d2d2"/><path fill="#d2d2d2" stroke-dashoffset="" fill-rule="nonzero" marker-start="" marker-mid="" marker-end="" id="svg_2" d="M13.104606387880578,5.783548158114242 C17.5235767117777,-6.893825721915278 34.837247325076284,5.783548158114242 13.104606387880578,22.083028861010522 C-8.628034549313258,5.783548158114242 8.685636063985443,-6.893825721915278 13.104606387880578,5.783548158114242 z" style="color: rgb(229, 220, 213);" class="selected" fill-opacity="1"/></g></svg>